<svg version="1.1" xmlns="http://www.w3.org/2000/svg" viewBox="0 0 1377.4940828712697 1544.453127738332" width="1377.4940828712697" height="1544.453127738332">
  <!-- svg-source:excalidraw -->
  
  <defs>
    <style class="style-fonts">
      @font-face {
        font-family: "Virgil";
        src: url("https://excalidraw.com/Virgil.woff2");
      }
      @font-face {
        font-family: "Cascadia";
        src: url("https://excalidraw.com/Cascadia.woff2");
      }
      @font-face {
        font-family: "Assistant";
        src: url("https://excalidraw.com/Assistant-Regular.woff2");
      }
    </style>
    
  </defs>
  <rect x="0" y="0" width="1377.4940828712697" height="1544.453127738332" fill="#ffffff"></rect><g stroke-linecap="round" transform="translate(175.8499241253237 1095.4735432256834) rotate(0 267.08918917336075 42.90446060199679)"><path d="M0 0 L534.18 0 L534.18 85.81 L0 85.81" stroke="none" stroke-width="0" fill="#b2f2bb"></path><path d="M0 0 C126.1 0, 252.2 0, 534.18 0 M0 0 C204.3 0, 408.59 0, 534.18 0 M534.18 0 C534.18 27.16, 534.18 54.31, 534.18 85.81 M534.18 0 C534.18 24.61, 534.18 49.23, 534.18 85.81 M534.18 85.81 C390.5 85.81, 246.83 85.81, 0 85.81 M534.18 85.81 C327.98 85.81, 121.79 85.81, 0 85.81 M0 85.81 C0 61.1, 0 36.39, 0 0 M0 85.81 C0 67.29, 0 48.77, 0 0" stroke="transparent" stroke-width="4" fill="none"></path></g><g stroke-linecap="round" transform="translate(651.2497348659859 979.4830545752002) rotate(0 71.39724964292401 22.82940518808425)"><path d="M0 0 L142.79 0 L142.79 45.66 L0 45.66" stroke="none" stroke-width="0" fill="#b2f2bb"></path><path d="M0 0 C29.09 0, 58.19 0, 142.79 0 M0 0 C31.88 0, 63.77 0, 142.79 0 M142.79 0 C142.79 14.53, 142.79 29.06, 142.79 45.66 M142.79 0 C142.79 15.38, 142.79 30.77, 142.79 45.66 M142.79 45.66 C87.74 45.66, 32.68 45.66, 0 45.66 M142.79 45.66 C89.26 45.66, 35.72 45.66, 0 45.66 M0 45.66 C0 29.04, 0 12.43, 0 0 M0 45.66 C0 27.82, 0 9.98, 0 0" stroke="transparent" stroke-width="4" fill="none"></path></g><g stroke-linecap="round" transform="translate(631.2599542401239 788.9615337503635) rotate(0 146.89977139489957 21.29635906114072)"><path d="M0 0 L293.8 0 L293.8 42.59 L0 42.59" stroke="none" stroke-width="0" fill="#b2f2bb"></path><path d="M0 0 C77.68 0, 155.37 0, 293.8 0 M0 0 C91.18 0, 182.36 0, 293.8 0 M293.8 0 C293.8 13.41, 293.8 26.82, 293.8 42.59 M293.8 0 C293.8 9.11, 293.8 18.22, 293.8 42.59 M293.8 42.59 C233.01 42.59, 172.21 42.59, 0 42.59 M293.8 42.59 C191.38 42.59, 88.96 42.59, 0 42.59 M0 42.59 C0 28.55, 0 14.52, 0 0 M0 42.59 C0 27.97, 0 13.35, 0 0" stroke="transparent" stroke-width="4" fill="none"></path></g><g stroke-linecap="round" transform="translate(273.15371964856456 436.1622640002389) rotate(0 201.40644336300915 40.4377549822957)"><path d="M0 0 L402.81 0 L402.81 80.88 L0 80.88" stroke="none" stroke-width="0" fill="#b2f2bb"></path><path d="M0 0 C134.96 0, 269.93 0, 402.81 0 M0 0 C130.03 0, 260.06 0, 402.81 0 M402.81 0 C402.81 28.98, 402.81 57.96, 402.81 80.88 M402.81 0 C402.81 17.99, 402.81 35.98, 402.81 80.88 M402.81 80.88 C243.03 80.88, 83.25 80.88, 0 80.88 M402.81 80.88 C255.4 80.88, 107.99 80.88, 0 80.88 M0 80.88 C0 55.65, 0 30.43, 0 0 M0 80.88 C0 57.12, 0 33.36, 0 0" stroke="transparent" stroke-width="4" fill="none"></path></g><g stroke-linecap="round" transform="translate(10 53.03939551498456) rotate(0 454.2682125421991 44)"><path d="M22 0 C220.3 4.14, 420.86 3.84, 886.54 0 M22 0 C233.63 3.79, 447.35 3.96, 886.54 0 M886.54 0 C899.51 1.07, 907.51 4.26, 908.54 22 M886.54 0 C900.11 2.55, 905.19 2.93, 908.54 22 M908.54 22 C904.64 36.18, 904.48 48.91, 908.54 66 M908.54 22 C907.96 38.71, 908.12 57.37, 908.54 66 M908.54 66 C911.56 81.65, 904.12 88.27, 886.54 88 M908.54 66 C911.12 81.11, 903.54 83.93, 886.54 88 M886.54 88 C691.94 92.19, 499.81 94.11, 22 88 M886.54 88 C706.65 88.65, 526.6 87.88, 22 88 M22 88 C10.86 90.57, 0.6 80.3, 0 66 M22 88 C3.84 91.71, 2.12 79.1, 0 66 M0 66 C-0.32 50.86, -2.03 31.22, 0 22 M0 66 C1.34 53.77, 0.29 43.8, 0 22 M0 22 C-3.77 9.01, 6.05 3.96, 22 0 M0 22 C-0.68 4.5, 4.48 -4.48, 22 0" stroke="#000000" stroke-width="1" fill="none"></path></g><g transform="translate(75.93038023424378 10) rotate(0 40.44996643066406 12.5)"><text x="0" y="17.52" font-family="Virgil, Segoe UI Emoji" font-size="20px" fill="#000000" text-anchor="start" style="white-space: pre;" direction="ltr" dominant-baseline="alphabetic">Batches</text></g><g stroke-linecap="round" transform="translate(70.93038023424378 69) rotate(0 125 28.5)"><path d="M14.25 0 C85.71 0.91, 151.3 5.51, 235.75 0 M14.25 0 C77.05 3.39, 140 3.23, 235.75 0 M235.75 0 C245.18 -3, 251.42 4.99, 250 14.25 M235.75 0 C248.88 -2.11, 254.38 2.79, 250 14.25 M250 14.25 C248.51 19.31, 252.41 27.34, 250 42.75 M250 14.25 C252.35 21.36, 250.82 33.27, 250 42.75 M250 42.75 C249.4 54.64, 245.75 53.52, 235.75 57 M250 42.75 C254.14 55.89, 249.32 57.01, 235.75 57 M235.75 57 C154.66 62.88, 81.08 57.59, 14.25 57 M235.75 57 C166.85 56.17, 101.23 53.82, 14.25 57 M14.25 57 C1.79 57.5, -1.38 54.61, 0 42.75 M14.25 57 C3.59 58.85, 3.42 52.65, 0 42.75 M0 42.75 C3.25 31.83, -3.95 29.19, 0 14.25 M0 42.75 C-1.16 37.25, -1.18 30.47, 0 14.25 M0 14.25 C-0.09 8.44, 5.6 3.45, 14.25 0 M0 14.25 C-0.35 1.64, 5.88 2.25, 14.25 0" stroke="#000000" stroke-width="1" fill="none"></path></g><g transform="translate(88.93038023424378 87) rotate(0 100.49992370605469 12.5)"><text x="0" y="17.52" font-family="Virgil, Segoe UI Emoji" font-size="20px" fill="#000000" text-anchor="start" style="white-space: pre;" direction="ltr" dominant-baseline="alphabetic">Material: Blue Paint</text></g><g stroke-linecap="round" transform="translate(340.9303802342438 68.5) rotate(0 125 28.5)"><path d="M14.25 0 C72.39 0.37, 127.8 2.09, 235.75 0 M14.25 0 C90.63 0.39, 167.87 0.19, 235.75 0 M235.75 0 C247.98 -1.14, 253.98 2.53, 250 14.25 M235.75 0 C244.59 -2.6, 251.14 7.32, 250 14.25 M250 14.25 C249.95 19.19, 254.13 27.24, 250 42.75 M250 14.25 C247.51 22.84, 250.41 35.05, 250 42.75 M250 42.75 C252.78 50.77, 243.24 58.11, 235.75 57 M250 42.75 C246.57 50.82, 240.89 54.88, 235.75 57 M235.75 57 C150.16 57.29, 73.43 59.61, 14.25 57 M235.75 57 C156.24 59.41, 79.68 58.62, 14.25 57 M14.25 57 C6.41 60.41, -2.75 50.88, 0 42.75 M14.25 57 C7.16 55.83, 3.67 47.8, 0 42.75 M0 42.75 C0.51 30.85, 0.15 20.02, 0 14.25 M0 42.75 C-1.33 34.94, 0.92 31.44, 0 14.25 M0 14.25 C-1.42 1.37, 7.32 2.44, 14.25 0 M0 14.25 C-2.51 3.36, 4.99 0.06, 14.25 0" stroke="#000000" stroke-width="1" fill="none"></path></g><g transform="translate(358.9303802342438 87.5) rotate(0 103.33992767333984 12.5)"><text x="0" y="17.52" font-family="Virgil, Segoe UI Emoji" font-size="20px" fill="#000000" text-anchor="start" style="white-space: pre;" direction="ltr" dominant-baseline="alphabetic">Material: Oak Planks</text></g><g stroke-linecap="round" transform="translate(610.9303802342438 67.5) rotate(0 125 28.5)"><path d="M14.25 0 C83.22 5.31, 160.07 1.86, 235.75 0 M14.25 0 C77.5 -3.42, 136.29 -4.41, 235.75 0 M235.75 0 C243.96 3.74, 249.05 1.8, 250 14.25 M235.75 0 C246.72 -1.54, 248.73 4.19, 250 14.25 M250 14.25 C248.07 24.43, 249.35 27.19, 250 42.75 M250 14.25 C247.59 22.73, 248.82 28.23, 250 42.75 M250 42.75 C248.07 52.8, 242.25 53.54, 235.75 57 M250 42.75 C248.46 50.7, 244.01 55.9, 235.75 57 M235.75 57 C151.41 55.86, 71.61 56.89, 14.25 57 M235.75 57 C175.9 60.27, 114.6 59.85, 14.25 57 M14.25 57 C1.46 56.35, -2.26 51.15, 0 42.75 M14.25 57 C0.27 52.95, -4.18 51.32, 0 42.75 M0 42.75 C0.23 34.72, -0.96 30.98, 0 14.25 M0 42.75 C2.24 29.62, 1.68 20.95, 0 14.25 M0 14.25 C3.54 5.28, 2.51 -0.44, 14.25 0 M0 14.25 C-1.74 2.26, 6.12 -0.96, 14.25 0" stroke="#000000" stroke-width="1" fill="none"></path></g><g transform="translate(628.9303802342438 86.5) rotate(0 109.96991729736328 12.5)"><text x="0" y="17.52" font-family="Virgil, Segoe UI Emoji" font-size="20px" fill="#000000" text-anchor="start" style="white-space: pre;" direction="ltr" dominant-baseline="alphabetic">Material: Rusty Metal</text></g><g transform="translate(882.6546116293516 92.07879102996918) rotate(0 8.219993591308594 12.5)"><text x="0" y="17.52" font-family="Virgil, Segoe UI Emoji" font-size="20px" fill="#000000" text-anchor="start" style="white-space: pre;" direction="ltr" dominant-baseline="alphabetic">...</text></g><g stroke-linecap="round" transform="translate(55.954892636142404 190.5) rotate(0 125 67)"><path d="M32 0 C73.6 2.23, 108.89 2.06, 218 0 M32 0 C93.89 1.84, 152.79 4.23, 218 0 M218 0 C235.54 -1.84, 249.42 13.54, 250 32 M218 0 C241.32 -3.52, 248.61 9.35, 250 32 M250 32 C250.18 50.84, 250.84 77.16, 250 102 M250 32 C250.03 46.39, 250.16 63.23, 250 102 M250 102 C250.04 120.24, 240.48 136.74, 218 134 M250 102 C252.41 124.19, 242.47 138.13, 218 134 M218 134 C157.76 133.8, 86.62 133.74, 32 134 M218 134 C149.08 129.67, 84.73 131.26, 32 134 M32 134 C10.81 137.8, -2.99 121.9, 0 102 M32 134 C7.81 137.91, 3.99 122.6, 0 102 M0 102 C-0.68 80.32, -1.67 58.78, 0 32 M0 102 C1.17 78.27, 2.6 53.09, 0 32 M0 32 C2.56 10.84, 9.74 1.07, 32 0 M0 32 C-3.07 12.62, 9.37 -2.51, 32 0" stroke="#000000" stroke-width="1" fill="none"></path></g><g transform="translate(72.9548926361424 210.5) rotate(0 100.49992370605469 50)"><text x="0" y="17.52" font-family="Virgil, Segoe UI Emoji" font-size="20px" fill="#000000" text-anchor="start" style="white-space: pre;" direction="ltr" dominant-baseline="alphabetic">Material: Blue Paint</text><text x="0" y="42.519999999999996" font-family="Virgil, Segoe UI Emoji" font-size="20px" fill="#000000" text-anchor="start" style="white-space: pre;" direction="ltr" dominant-baseline="alphabetic"></text><text x="0" y="67.52" font-family="Virgil, Segoe UI Emoji" font-size="20px" fill="#000000" text-anchor="start" style="white-space: pre;" direction="ltr" dominant-baseline="alphabetic">Commands Start: 1</text><text x="0" y="92.52" font-family="Virgil, Segoe UI Emoji" font-size="20px" fill="#000000" text-anchor="start" style="white-space: pre;" direction="ltr" dominant-baseline="alphabetic">Commands Count: 2</text></g><g stroke-linecap="round" transform="translate(67.49558837330574 431.2475647279573) rotate(0 433.9999999999999 44)"><path d="M22 0 C325.5 5.84, 628.12 5.48, 846 0 M22 0 C201.43 2.33, 380.49 1, 846 0 M846 0 C860.75 -2.15, 870.47 5.31, 868 22 M846 0 C856.8 1.09, 871.29 4.64, 868 22 M868 22 C870.46 34.42, 865.75 41.37, 868 66 M868 22 C868.51 34.75, 868.57 51.6, 868 66 M868 66 C867.96 80.98, 864.64 91.9, 846 88 M868 66 C864.38 83.13, 861.56 92.18, 846 88 M846 88 C653.06 87.85, 456.91 87.69, 22 88 M846 88 C616.36 86.59, 385.31 87.71, 22 88 M22 88 C7.83 85, -2.96 78.94, 0 66 M22 88 C7.15 89.81, -0.87 79.46, 0 66 M0 66 C-0.68 52.28, -3.61 28.78, 0 22 M0 66 C0.43 52.73, -0.91 41.82, 0 22 M0 22 C1.72 8.75, 4.15 2.11, 22 0 M0 22 C0.7 10.81, 9.47 1.65, 22 0" stroke="#000000" stroke-width="1" fill="none"></path></g><g transform="translate(84.17569047955396 394.3517316017318) rotate(0 76.95994567871094 12.5)"><text x="0" y="17.52" font-family="Virgil, Segoe UI Emoji" font-size="20px" fill="#000000" text-anchor="start" style="white-space: pre;" direction="ltr" dominant-baseline="alphabetic">Draw Commands</text></g><g stroke-linecap="round" transform="translate(79.17569047955396 446.7283549783551) rotate(0 90.4545454545455 28.5)"><path d="M14.25 0 C55.82 -0.37, 102.88 0.63, 166.66 0 M14.25 0 C70.5 1.92, 127.9 1.99, 166.66 0 M166.66 0 C172.79 0.95, 183.77 2.4, 180.91 14.25 M166.66 0 C174.04 1.27, 176.92 7.3, 180.91 14.25 M180.91 14.25 C181.46 22.05, 180.02 34.86, 180.91 42.75 M180.91 14.25 C181.16 20.9, 183.16 29.18, 180.91 42.75 M180.91 42.75 C177.76 54.4, 176.93 60.63, 166.66 57 M180.91 42.75 C177.96 52.66, 176.44 60.92, 166.66 57 M166.66 57 C125.35 52.85, 85.22 58.09, 14.25 57 M166.66 57 C132.72 57.47, 96.8 58.11, 14.25 57 M14.25 57 C4.59 58.57, -0.76 51.2, 0 42.75 M14.25 57 C9.16 55.98, 0.82 51.24, 0 42.75 M0 42.75 C-0.05 34.09, 2.03 22.36, 0 14.25 M0 42.75 C0.96 35.95, -1.49 28.78, 0 14.25 M0 14.25 C0.61 7.78, 6.61 1.43, 14.25 0 M0 14.25 C2.66 0.71, 5.89 1.11, 14.25 0" stroke="#000000" stroke-width="1" fill="none"></path></g><g transform="translate(97.17569047955396 463.2997835497837) rotate(0 71.52995300292969 12.5)"><text x="0" y="17.52" font-family="Virgil, Segoe UI Emoji" font-size="20px" fill="#000000" text-anchor="start" style="white-space: pre;" direction="ltr" dominant-baseline="alphabetic">Draw Command</text></g><g transform="translate(898.1756904795539 468.637445887446) rotate(0 8.219993591308594 12.5)"><text x="0" y="17.52" font-family="Virgil, Segoe UI Emoji" font-size="20px" fill="#000000" text-anchor="start" style="white-space: pre;" direction="ltr" dominant-baseline="alphabetic">...</text></g><g stroke-linecap="round" transform="translate(285.56864138295987 446.540799731781) rotate(0 90.4545454545455 28.5)"><path d="M14.25 0 C60.28 2.06, 110.02 1.44, 166.66 0 M14.25 0 C61.26 -3.21, 102.59 -4.39, 166.66 0 M166.66 0 C177 2.19, 177.14 8.61, 180.91 14.25 M166.66 0 C178.08 1.05, 177.23 3.44, 180.91 14.25 M180.91 14.25 C182.46 25.8, 184.25 36.82, 180.91 42.75 M180.91 14.25 C181.78 21.96, 181.31 31.12, 180.91 42.75 M180.91 42.75 C182.33 52.81, 177.18 53.03, 166.66 57 M180.91 42.75 C177.32 51.76, 174.5 55.18, 166.66 57 M166.66 57 C108.59 55.58, 51.63 57.76, 14.25 57 M166.66 57 C120.88 60.04, 71.66 58.42, 14.25 57 M14.25 57 C1.75 56.1, -3.89 52.48, 0 42.75 M14.25 57 C7.03 58.93, -4.2 54.7, 0 42.75 M0 42.75 C-1.87 33.61, -3.23 23.86, 0 14.25 M0 42.75 C1.98 33.02, 1 25.23, 0 14.25 M0 14.25 C-0.23 5.94, 1.52 -0.66, 14.25 0 M0 14.25 C0.11 5.76, 6.94 -2.64, 14.25 0" stroke="#000000" stroke-width="1" fill="none"></path></g><g transform="translate(303.56864138295987 463.11222830320946) rotate(0 71.52995300292969 12.5)"><text x="0" y="17.52" font-family="Virgil, Segoe UI Emoji" font-size="20px" fill="#000000" text-anchor="start" style="white-space: pre;" direction="ltr" dominant-baseline="alphabetic">Draw Command</text></g><g stroke-linecap="round" transform="translate(485.18049261742476 444.72261791359904) rotate(0 90.4545454545455 28.5)"><path d="M14.25 0 C62.63 -5.81, 108.97 -4.64, 166.66 0 M14.25 0 C63.79 2.2, 113.1 2.61, 166.66 0 M166.66 0 C173.73 -1.16, 181.72 6.51, 180.91 14.25 M166.66 0 C171.7 -0.69, 180.88 7.58, 180.91 14.25 M180.91 14.25 C181.76 23.56, 181.35 36.02, 180.91 42.75 M180.91 14.25 C180.83 19.62, 179.98 27.28, 180.91 42.75 M180.91 42.75 C178.29 48.4, 176.09 56.56, 166.66 57 M180.91 42.75 C183.46 52.92, 179.52 59.38, 166.66 57 M166.66 57 C127.33 53.87, 94.37 52.91, 14.25 57 M166.66 57 C117.49 55.53, 64.17 55.73, 14.25 57 M14.25 57 C5.26 53.14, 2.54 50.81, 0 42.75 M14.25 57 C1.35 59.91, 3.07 53.75, 0 42.75 M0 42.75 C-2.57 40, -0.58 33.53, 0 14.25 M0 42.75 C-0.82 35.97, -0.37 29.32, 0 14.25 M0 14.25 C0.45 4.47, 6.9 3.01, 14.25 0 M0 14.25 C-3 6.58, 3.03 1.61, 14.25 0" stroke="#000000" stroke-width="1" fill="none"></path></g><g transform="translate(503.18049261742476 461.2940464850275) rotate(0 71.52995300292969 12.5)"><text x="0" y="17.52" font-family="Virgil, Segoe UI Emoji" font-size="20px" fill="#000000" text-anchor="start" style="white-space: pre;" direction="ltr" dominant-baseline="alphabetic">Draw Command</text></g><g stroke-linecap="round" transform="translate(694.8153433703135 446.87236803439305) rotate(0 90.4545454545455 28.5)"><path d="M14.25 0 C50.58 -1.01, 90.41 4.27, 166.66 0 M14.25 0 C59.22 2.1, 100.22 2.25, 166.66 0 M166.66 0 C175.72 -0.95, 179.49 3.11, 180.91 14.25 M166.66 0 C178.19 -3.87, 180.71 2.95, 180.91 14.25 M180.91 14.25 C177.58 22.72, 183.95 32.19, 180.91 42.75 M180.91 14.25 C182.26 25.02, 181.85 31.39, 180.91 42.75 M180.91 42.75 C181.06 54.98, 176.35 55.45, 166.66 57 M180.91 42.75 C177.02 55.89, 177.67 56.89, 166.66 57 M166.66 57 C109.44 62.15, 52.8 55.36, 14.25 57 M166.66 57 C123.02 56.98, 80.64 58.64, 14.25 57 M14.25 57 C4.81 58.26, -2.6 49.59, 0 42.75 M14.25 57 C4.08 52.72, -2.99 49.15, 0 42.75 M0 42.75 C-3.63 29.85, -1.34 21.84, 0 14.25 M0 42.75 C1.39 32.46, -0.14 20.48, 0 14.25 M0 14.25 C0.78 5.79, 4.83 3.73, 14.25 0 M0 14.25 C1.3 7.27, 1.2 1.87, 14.25 0" stroke="#000000" stroke-width="1" fill="none"></path></g><g transform="translate(712.8153433703133 463.4437966058215) rotate(0 71.52995300292969 12.5)"><text x="0" y="17.52" font-family="Virgil, Segoe UI Emoji" font-size="20px" fill="#000000" text-anchor="start" style="white-space: pre;" direction="ltr" dominant-baseline="alphabetic">Draw Command</text></g><g stroke-linecap="round"><g transform="translate(183.6087746865279 123.49458874458878) rotate(0 0.9565117769695917 35.41782384497199)"><path d="M-1.28 1.71 C-1.57 12.71, 0.35 56.77, 0.3 67.44 M3.22 0.17 C2.51 11.46, 0 59.44, -1.12 70.66" stroke="#000000" stroke-width="1" fill="none"></path></g><g transform="translate(183.6087746865279 123.49458874458878) rotate(0 0.9565117769695917 35.41782384497199)"><path d="M-6.74 47.69 C-5.82 55.36, -4.49 63.91, 0.5 70.69 M-8.81 45.99 C-5.05 54.1, -2.86 63.26, -1.67 70.34" stroke="#000000" stroke-width="1" fill="none"></path></g><g transform="translate(183.6087746865279 123.49458874458878) rotate(0 0.9565117769695917 35.41782384497199)"><path d="M10.32 48.92 C4.87 56.06, -0.16 64.15, 0.5 70.69 M8.25 47.22 C5.97 55.02, 2.1 63.75, -1.67 70.34" stroke="#000000" stroke-width="1" fill="none"></path></g></g><mask></mask><g stroke-linecap="round"><g transform="translate(314.4502028814527 275.3280231392661) rotate(0 178.515462803692 73.25935323124781)"><path d="M0.44 -0.41 C49.01 1.58, 233.89 -11.21, 293.78 13.81 C353.67 38.84, 348.56 127.06, 359.79 149.76 M-2.76 -3.11 C45.24 -2.14, 231.69 -16.58, 291.68 9.4 C351.68 35.38, 345.53 128.89, 357.21 152.76" stroke="#000000" stroke-width="1" fill="none"></path></g><g transform="translate(314.4502028814527 275.3280231392661) rotate(0 178.515462803692 73.25935323124781)"><path d="M343.56 131.81 C349.93 138.74, 354.15 147.89, 357.24 152.98 M343.85 131.06 C346.16 136.31, 348.27 141.22, 357.14 152.62" stroke="#000000" stroke-width="1" fill="none"></path></g><g transform="translate(314.4502028814527 275.3280231392661) rotate(0 178.515462803692 73.25935323124781)"><path d="M360.27 128.17 C360.22 136.53, 358 147.09, 357.24 152.98 M360.56 127.42 C359.42 133.28, 358.11 138.94, 357.14 152.62" stroke="#000000" stroke-width="1" fill="none"></path></g></g><mask></mask><g transform="translate(356.1529632068268 244.40367965367983) rotate(0 102.50993347167969 12.5)"><text x="0" y="17.52" font-family="Virgil, Segoe UI Emoji" font-size="20px" fill="#000000" text-anchor="start" style="white-space: pre;" direction="ltr" dominant-baseline="alphabetic">end = start + count</text></g><g stroke-linecap="round"><g transform="translate(264.0427490513665 329.0087316707569) rotate(0 3.2355670055538894 57.932800614533846)"><path d="M2.07 2.38 C3.35 21.03, 6.3 96.49, 6.72 114.66 M-0.25 1.21 C0.79 20.18, 2.92 91.49, 4.72 110.17" stroke="#000000" stroke-width="1" fill="none"></path></g><g transform="translate(264.0427490513665 329.0087316707569) rotate(0 3.2355670055538894 57.932800614533846)"><path d="M-3.5 87.53 C-1.66 92.04, -1.35 97.92, 5.74 110.21 M-5.26 86.76 C-1.67 92.77, 0.66 100.86, 5.31 109.97" stroke="#000000" stroke-width="1" fill="none"></path></g><g transform="translate(264.0427490513665 329.0087316707569) rotate(0 3.2355670055538894 57.932800614533846)"><path d="M13.57 86.52 C10.89 91.43, 6.67 97.57, 5.74 110.21 M11.81 85.75 C10.62 92.01, 8.18 100.38, 5.31 109.97" stroke="#000000" stroke-width="1" fill="none"></path></g></g><mask></mask><g transform="translate(282.5165995704631 384.40367965367966) rotate(0 27.699974060058594 12.5)"><text x="0" y="17.52" font-family="Virgil, Segoe UI Emoji" font-size="20px" fill="#000000" text-anchor="start" style="white-space: pre;" direction="ltr" dominant-baseline="alphabetic">start</text></g><g transform="translate(38.308839034420714 90.69470046519797) rotate(0 8.219993591308594 12.5)"><text x="0" y="17.52" font-family="Virgil, Segoe UI Emoji" font-size="20px" fill="#000000" text-anchor="start" style="white-space: pre;" direction="ltr" dominant-baseline="alphabetic">...</text></g><g stroke-linecap="round" transform="translate(446.1445085396806 787.6389362355892) rotate(0 386.2222222222223 24.3621881350723)"><path d="M12.18 0 C268.93 -4.78, 527.58 -5.77, 760.26 0 M12.18 0 C171.4 1.47, 329.73 0.8, 760.26 0 M760.26 0 C771.47 3.01, 775.48 1.14, 772.44 12.18 M760.26 0 C768.71 0.61, 775.09 3.39, 772.44 12.18 M772.44 12.18 C771.92 21.87, 773 23.88, 772.44 36.54 M772.44 12.18 C773.06 18.81, 771 21.2, 772.44 36.54 M772.44 36.54 C769.94 44.84, 770.91 50.16, 760.26 48.72 M772.44 36.54 C774.74 42.3, 771.91 48.4, 760.26 48.72 M760.26 48.72 C581.14 54.07, 400.49 51.47, 12.18 48.72 M760.26 48.72 C591.93 44.17, 423.99 44.68, 12.18 48.72 M12.18 48.72 C3.2 49.61, -2.82 46.57, 0 36.54 M12.18 48.72 C2.19 44.54, -0.26 44.63, 0 36.54 M0 36.54 C-1.79 25.81, 0.18 15.79, 0 12.18 M0 36.54 C0.12 28.8, -1.14 20.85, 0 12.18 M0 12.18 C-1.94 1.81, 3.96 2.89, 12.18 0 M0 12.18 C-2.41 7.74, 5.54 2.15, 12.18 0" stroke="#000000" stroke-width="1" fill="none"></path></g><g stroke-linecap="round" transform="translate(69.73890880983993 588.8743843053919) rotate(0 138.60662834378007 102.26489293669982)"><path d="M32 0 C76.78 1.33, 126.17 1.93, 245.21 0 M32 0 C99.76 -2.13, 165.81 -2.8, 245.21 0 M245.21 0 C268.69 -3.13, 277.66 11.52, 277.21 32 M245.21 0 C269.05 0.93, 276.67 6.98, 277.21 32 M277.21 32 C273.69 61.42, 280.78 92, 277.21 172.53 M277.21 32 C278.4 70.27, 275.24 104.59, 277.21 172.53 M277.21 172.53 C277.97 196.74, 263.04 206.12, 245.21 204.53 M277.21 172.53 C280.55 198.41, 266.15 205.6, 245.21 204.53 M245.21 204.53 C164.29 199.73, 84.67 199.63, 32 204.53 M245.21 204.53 C165.59 204.94, 85.09 206.39, 32 204.53 M32 204.53 C12.18 201.89, -0.95 191.11, 0 172.53 M32 204.53 C12.2 208.86, -3.18 190.47, 0 172.53 M0 172.53 C-0.03 141.39, 0.02 109.11, 0 32 M0 172.53 C-2.27 127.27, -2.76 80.98, 0 32 M0 32 C-3.7 10.87, 13.94 3.81, 32 0 M0 32 C3.6 11.91, 10.35 -0.49, 32 0" stroke="#000000" stroke-width="1" fill="none"></path></g><g transform="translate(88.76342121173855 601.3477632692258) rotate(0 90.54993438720703 87.5)"><text x="0" y="17.52" font-family="Virgil, Segoe UI Emoji" font-size="20px" fill="#000000" text-anchor="start" style="white-space: pre;" direction="ltr" dominant-baseline="alphabetic">Draw Command</text><text x="0" y="42.519999999999996" font-family="Virgil, Segoe UI Emoji" font-size="20px" fill="#000000" text-anchor="start" style="white-space: pre;" direction="ltr" dominant-baseline="alphabetic"></text><text x="0" y="67.52" font-family="Virgil, Segoe UI Emoji" font-size="20px" fill="#000000" text-anchor="start" style="white-space: pre;" direction="ltr" dominant-baseline="alphabetic">Element Count: 11</text><text x="0" y="92.52" font-family="Virgil, Segoe UI Emoji" font-size="20px" fill="#000000" text-anchor="start" style="white-space: pre;" direction="ltr" dominant-baseline="alphabetic">Base Index: 501</text><text x="0" y="117.52" font-family="Virgil, Segoe UI Emoji" font-size="20px" fill="#000000" text-anchor="start" style="white-space: pre;" direction="ltr" dominant-baseline="alphabetic">Base Vertex: 104</text><text x="0" y="142.52" font-family="Virgil, Segoe UI Emoji" font-size="20px" fill="#000000" text-anchor="start" style="white-space: pre;" direction="ltr" dominant-baseline="alphabetic">Instance Count: 2</text><text x="0" y="167.52" font-family="Virgil, Segoe UI Emoji" font-size="20px" fill="#000000" text-anchor="start" style="white-space: pre;" direction="ltr" dominant-baseline="alphabetic">Base Instance: 10</text></g><g stroke-linecap="round"><g transform="translate(380.0872916379785 500.5799704889505) rotate(0 -42.10318024952687 41.71300980501991)"><path d="M-3.62 -1.56 C-21.97 16.87, -40.82 42.27, -86.01 84.99 M1.8 0.7 C-29.16 24.45, -53.79 52.64, -82.37 84.52" stroke="#1e1e1e" stroke-width="1" fill="none"></path></g><g transform="translate(380.0872916379785 500.5799704889505) rotate(0 -42.10318024952687 41.71300980501991)"><path d="M-74.81 60.56 C-75.56 65.56, -76.93 73.7, -83.6 85.52 M-72.09 61.69 C-77.05 67.72, -79.41 76.19, -81.78 85.28" stroke="#1e1e1e" stroke-width="1" fill="none"></path></g><g transform="translate(380.0872916379785 500.5799704889505) rotate(0 -42.10318024952687 41.71300980501991)"><path d="M-62.1 72 C-65.95 74.1, -70.48 79.39, -83.6 85.52 M-59.39 73.14 C-68.14 75.69, -74.4 80.63, -81.78 85.28" stroke="#1e1e1e" stroke-width="1" fill="none"></path></g></g><mask></mask><g transform="translate(446.69934356894237 740.0013639599513) rotate(0 64.3399429321289 12.5)"><text x="0" y="17.52" font-family="Virgil, Segoe UI Emoji" font-size="20px" fill="#1e1e1e" text-anchor="start" style="white-space: pre;" direction="ltr" dominant-baseline="alphabetic">Index Buffer</text></g><g transform="translate(463.3660102356091 798.8902528488402) rotate(0 370.5499572753906 12.5)"><text x="0" y="17.52" font-family="Virgil, Segoe UI Emoji" font-size="20px" fill="#1e1e1e" text-anchor="start" style="white-space: pre;" direction="ltr" dominant-baseline="alphabetic">..., 1154, 23, 157, 0, 3, 2, 1, 3, 4, 8, 7, 2, 9, 7, 0, 1, 7, 3, 3, 8, 2, 1, 3, ... </text></g><g stroke-linecap="round" transform="translate(448.71989271987866 980.3166205963632) rotate(0 421.9050989080195 21.29609588118501)"><path d="M10.65 0 C274.7 -6.46, 543.39 -4.95, 833.16 0 M10.65 0 C206.07 0.76, 402.23 1.16, 833.16 0 M833.16 0 C843.28 2.57, 844.24 5.18, 843.81 10.65 M833.16 0 C840.17 4.4, 844.68 3.31, 843.81 10.65 M843.81 10.65 C840.33 17.53, 844.63 15.7, 843.81 31.94 M843.81 10.65 C842.6 14.67, 843.22 22.66, 843.81 31.94 M843.81 31.94 C847.37 38.18, 836.94 38.69, 833.16 42.59 M843.81 31.94 C843.59 35.67, 842.48 44.13, 833.16 42.59 M833.16 42.59 C518.24 47.52, 198.81 49, 10.65 42.59 M833.16 42.59 C632.35 49.08, 430.01 49.44, 10.65 42.59 M10.65 42.59 C7.46 40.09, 0.33 35.25, 0 31.94 M10.65 42.59 C6.16 40.67, 2.47 41.46, 0 31.94 M0 31.94 C0.57 24.94, 0.76 21.04, 0 10.65 M0 31.94 C-0.59 26.88, 1.07 20.42, 0 10.65 M0 10.65 C0.7 3.23, 7.08 3.81, 10.65 0 M0 10.65 C2.54 1.37, 1.66 2.22, 10.65 0" stroke="#000000" stroke-width="1" fill="none"></path></g><g transform="translate(446.8114367361537 941.7582522467062) rotate(0 69.11993408203125 12.5)"><text x="0" y="17.52" font-family="Virgil, Segoe UI Emoji" font-size="20px" fill="#1e1e1e" text-anchor="start" style="white-space: pre;" direction="ltr" dominant-baseline="alphabetic">Vertex Buffer</text></g><g stroke-linecap="round"><g transform="translate(276.0442320808012 694.1771951626229) rotate(0 179.977558005197 48.2585718364665)"><path d="M-0.08 -0.73 C51.47 0.59, 248.57 -8.96, 309.17 7.84 C369.76 24.65, 354.08 85.49, 363.52 100.11 M-3.56 -3.59 C47.69 -1.88, 246.47 -5.72, 307.35 10.87 C368.23 27.47, 351.67 81.62, 361.71 95.98" stroke="#1e1e1e" stroke-width="1" fill="none"></path></g><g transform="translate(276.0442320808012 694.1771951626229) rotate(0 179.977558005197 48.2585718364665)"><path d="M347.87 75.38 C351.54 81.09, 358.12 88.97, 360.29 95.63 M348.4 74.49 C352.55 81.91, 358.77 90.15, 362.51 95.85" stroke="#1e1e1e" stroke-width="1" fill="none"></path></g><g transform="translate(276.0442320808012 694.1771951626229) rotate(0 179.977558005197 48.2585718364665)"><path d="M364.59 71.76 C363.31 78.54, 364.94 87.49, 360.29 95.63 M365.11 70.88 C363.25 79.46, 363.44 89, 362.51 95.85" stroke="#1e1e1e" stroke-width="1" fill="none"></path></g></g><mask></mask><g transform="translate(390.561578265953 670.2488557725607) rotate(0 27.699974060058594 12.5)"><text x="0" y="17.52" font-family="Virgil, Segoe UI Emoji" font-size="20px" fill="#1e1e1e" text-anchor="start" style="white-space: pre;" direction="ltr" dominant-baseline="alphabetic">start</text></g><g stroke-linecap="round"><g transform="translate(275.4598040571527 663.2436373278342) rotate(0 320.01562679993646 61.16611057292954)"><path d="M1.6 -0.33 C46.37 -1.1, 177.01 -3.16, 268.23 -3.15 C359.45 -3.14, 488.83 -4.53, 548.91 -0.27 C608.99 3.99, 613.36 1.44, 628.71 22.43 C644.06 43.43, 638.54 108.57, 641.01 125.69 M-0.98 -2.98 C43.46 -3.47, 174.45 -0.91, 265.99 0.1 C357.53 1.1, 487.59 -1.06, 548.27 3.03 C608.95 7.12, 615.21 5.24, 630.07 24.64 C644.93 44.04, 635.86 102.9, 637.43 119.43" stroke="#1e1e1e" stroke-width="1" fill="none"></path></g><g transform="translate(275.4598040571527 663.2436373278342) rotate(0 320.01562679993646 61.16611057292954)"><path d="M629.16 95.75 C631.3 103.99, 634.35 110.22, 636.91 119.29 M629.63 95.42 C633.17 105.68, 636.81 114.46, 637.99 120.01" stroke="#1e1e1e" stroke-width="1" fill="none"></path></g><g transform="translate(275.4598040571527 663.2436373278342) rotate(0 320.01562679993646 61.16611057292954)"><path d="M646.26 96.13 C643.53 104.35, 641.7 110.48, 636.91 119.29 M646.73 95.79 C643.49 106.04, 640.36 114.66, 637.99 120.01" stroke="#1e1e1e" stroke-width="1" fill="none"></path></g></g><mask></mask><g transform="translate(394.0781267944176 629.606609151157) rotate(0 102.50993347167969 12.5)"><text x="0" y="17.52" font-family="Virgil, Segoe UI Emoji" font-size="20px" fill="#1e1e1e" text-anchor="start" style="white-space: pre;" direction="ltr" dominant-baseline="alphabetic">end = start + count</text></g><g transform="translate(473.8323191160482 992.8469994717216) rotate(0 402.7398376464844 12.5)"><text x="0" y="17.52" font-family="Virgil, Segoe UI Emoji" font-size="20px" fill="#1e1e1e" text-anchor="start" style="white-space: pre;" direction="ltr" dominant-baseline="alphabetic">..., (0.3, 1.7, 0.3), (1.0, 2.4, 0.8), (-0.5, 0.0, 0.5), (1.3, -1.2, 1.1), (1.0, 0.3, -0.5), ...</text></g><g transform="translate(448.51381877996494 891.2896072958188) rotate(0 147.1898803710937 12.5)"><text x="0" y="17.52" font-family="Virgil, Segoe UI Emoji" font-size="20px" fill="#1e1e1e" text-anchor="start" style="white-space: pre;" direction="ltr" dominant-baseline="alphabetic">base vertex + index = vertex</text></g><g stroke-linecap="round"><g transform="translate(279.15903554707734 716.0440859828717) rotate(0 94.92151960064069 85.32346929580422)"><path d="M1.25 1.73 C16.9 3.83, 74.2 -8.07, 94.98 13.34 C115.76 34.75, 109.94 104.19, 125.91 130.18 C141.88 156.17, 180.39 162.23, 190.81 169.27 M-1.52 0.21 C13.59 2.61, 70.06 -5.77, 92.28 16.34 C114.51 38.45, 115.31 107.16, 131.82 132.85 C148.33 158.53, 181.28 163.66, 191.36 170.44" stroke="#1e1e1e" stroke-width="1" fill="none"></path></g><g transform="translate(279.15903554707734 716.0440859828717) rotate(0 94.92151960064069 85.32346929580422)"><path d="M167.65 168.18 C174.03 168.02, 182.72 169.75, 189.48 168.72 M166.98 168.59 C173.33 169.27, 182.75 169.56, 191.33 170.51" stroke="#1e1e1e" stroke-width="1" fill="none"></path></g><g transform="translate(279.15903554707734 716.0440859828717) rotate(0 94.92151960064069 85.32346929580422)"><path d="M174.56 152.53 C178.64 157.7, 185 164.73, 189.48 168.72 M173.88 152.95 C178.03 158.65, 185.26 163.9, 191.33 170.51" stroke="#1e1e1e" stroke-width="1" fill="none"></path></g></g><mask></mask><g stroke-linecap="round"><g transform="translate(636.2318864292708 826.4492261876017) rotate(0 -6.8402263032167525 28.648129875331506)"><path d="M1.9 -0.16 C-0.48 9.25, -10.83 47.44, -12.77 56.67 M-0.51 -2.72 C-3.5 7.1, -13.91 50.02, -15.58 60.01" stroke="#1e1e1e" stroke-width="1" fill="none"></path></g><g transform="translate(636.2318864292708 826.4492261876017) rotate(0 -6.8402263032167525 28.648129875331506)"><path d="M-19.17 34.51 C-18.18 45.39, -17.98 52.47, -15.35 61.35 M-19.92 34.26 C-17.8 42.22, -16.87 50.17, -15.37 60.97" stroke="#1e1e1e" stroke-width="1" fill="none"></path></g><g transform="translate(636.2318864292708 826.4492261876017) rotate(0 -6.8402263032167525 28.648129875331506)"><path d="M-2.44 38.06 C-7.38 47.8, -13.1 53.62, -15.35 61.35 M-3.19 37.82 C-6.37 44.59, -10.77 51.4, -15.37 60.97" stroke="#1e1e1e" stroke-width="1" fill="none"></path></g></g><mask></mask><g stroke-linecap="round"><g transform="translate(713.891392629625 922.2107996304778) rotate(0 -0.6843592441814508 25.02901064017351)"><path d="M-0.23 -0.02 C-0.13 8.42, 0.35 41.27, 0.44 49.67 M-1.81 -1.07 C-1.75 7.63, -0.21 42.89, 0.11 51.13" stroke="#1e1e1e" stroke-width="1" fill="none"></path></g><g transform="translate(713.891392629625 922.2107996304778) rotate(0 -0.6843592441814508 25.02901064017351)"><path d="M-9.39 30.05 C-7.07 36.53, -3.15 41.15, 0.67 51.28 M-10.28 27.6 C-6.17 37.08, -1.86 46.61, 0.35 50.23" stroke="#1e1e1e" stroke-width="1" fill="none"></path></g><g transform="translate(713.891392629625 922.2107996304778) rotate(0 -0.6843592441814508 25.02901064017351)"><path d="M7.63 29.35 C5.05 36, 4.06 40.82, 0.67 51.28 M6.74 26.9 C4.34 36.76, 2.14 46.56, 0.35 50.23" stroke="#1e1e1e" stroke-width="1" fill="none"></path></g></g><mask></mask><g stroke-linecap="round"><g stroke-opacity="0.4" fill-opacity="0.4" transform="translate(671.0216162474803 820.7948906773627) rotate(0 248.95178786435372 81.80182203330128)"><path d="M0 0 C10.4 9.46, -11.82 37.91, 62.42 56.74 C136.65 75.58, 372.84 95.2, 445.42 113.01 C518 130.82, 489.16 155.17, 497.9 163.6 M0 0 C10.4 9.46, -11.82 37.91, 62.42 56.74 C136.65 75.58, 372.84 95.2, 445.42 113.01 C518 130.82, 489.16 155.17, 497.9 163.6" stroke="#1e1e1e" stroke-width="1" fill="none"></path></g><g stroke-opacity="0.4" fill-opacity="0.4" transform="translate(671.0216162474803 820.7948906773627) rotate(0 248.95178786435372 81.80182203330128)"><path d="M486.38 141.42 C489.56 147.55, 492.75 153.68, 497.9 163.6 M486.38 141.42 C489.1 146.67, 491.83 151.91, 497.9 163.6" stroke="#1e1e1e" stroke-width="1" fill="none"></path></g><g stroke-opacity="0.4" fill-opacity="0.4" transform="translate(671.0216162474803 820.7948906773627) rotate(0 248.95178786435372 81.80182203330128)"><path d="M503.33 139.2 C501.83 145.94, 500.33 152.68, 497.9 163.6 M503.33 139.2 C502.05 144.97, 500.76 150.74, 497.9 163.6" stroke="#1e1e1e" stroke-width="1" fill="none"></path></g></g><mask></mask><g stroke-linecap="round"><g stroke-opacity="0.4" fill-opacity="0.4" transform="translate(699.1557689121128 822.2134193831425) rotate(0 170.22344469357506 81.09255768041146)"><path d="M0 0 C6.94 6.23, -8.59 25.06, 41.61 37.35 C91.81 49.65, 251.39 52.96, 301.2 73.76 C351.01 94.57, 333.91 147.45, 340.45 162.19 M0 0 C6.94 6.23, -8.59 25.06, 41.61 37.35 C91.81 49.65, 251.39 52.96, 301.2 73.76 C351.01 94.57, 333.91 147.45, 340.45 162.19" stroke="#1e1e1e" stroke-width="1" fill="none"></path></g><g stroke-opacity="0.4" fill-opacity="0.4" transform="translate(699.1557689121128 822.2134193831425) rotate(0 170.22344469357506 81.09255768041146)"><path d="M329.83 139.55 C332.25 144.71, 334.67 149.88, 340.45 162.19 M329.83 139.55 C332.43 145.11, 335.04 150.66, 340.45 162.19" stroke="#1e1e1e" stroke-width="1" fill="none"></path></g><g stroke-opacity="0.4" fill-opacity="0.4" transform="translate(699.1557689121128 822.2134193831425) rotate(0 170.22344469357506 81.09255768041146)"><path d="M346.86 138.02 C345.4 143.53, 343.93 149.04, 340.45 162.19 M346.86 138.02 C345.29 143.95, 343.71 149.88, 340.45 162.19" stroke="#1e1e1e" stroke-width="1" fill="none"></path></g></g><mask></mask><g stroke-linecap="round"><g stroke-opacity="0.4" fill-opacity="0.4" transform="translate(723.0876638740497 825.2571798523277) rotate(0 82.84863173088456 74.85083876498709)"><path d="M0 0 C3.88 3.78, -2.23 15.39, 23.25 22.67 C48.73 29.94, 129.74 22.48, 152.87 43.66 C175.99 64.83, 160.48 132.03, 162.01 149.7 M0 0 C3.88 3.78, -2.23 15.39, 23.25 22.67 C48.73 29.94, 129.74 22.48, 152.87 43.66 C175.99 64.83, 160.48 132.03, 162.01 149.7" stroke="#1e1e1e" stroke-width="1" fill="none"></path></g><g stroke-opacity="0.4" fill-opacity="0.4" transform="translate(723.0876638740497 825.2571798523277) rotate(0 82.84863173088456 74.85083876498709)"><path d="M154.99 125.71 C157.25 133.45, 159.52 141.2, 162.01 149.7 M154.99 125.71 C157.24 133.4, 159.49 141.09, 162.01 149.7" stroke="#1e1e1e" stroke-width="1" fill="none"></path></g><g stroke-opacity="0.4" fill-opacity="0.4" transform="translate(723.0876638740497 825.2571798523277) rotate(0 82.84863173088456 74.85083876498709)"><path d="M172.05 126.81 C168.81 134.2, 165.57 141.59, 162.01 149.7 M172.05 126.81 C168.83 134.15, 165.61 141.49, 162.01 149.7" stroke="#1e1e1e" stroke-width="1" fill="none"></path></g></g><mask></mask><g stroke-linecap="round" transform="translate(123.59360322682232 1097.8294281206042) rotate(0 454.2682125421991 44)"><path d="M22 0 C204.55 -3.09, 386.99 -1.35, 886.54 0 M22 0 C251.38 -3.77, 481.75 -4.12, 886.54 0 M886.54 0 C904.5 -2.2, 904.81 10.94, 908.54 22 M886.54 0 C904.34 2.59, 912.5 6.61, 908.54 22 M908.54 22 C906.72 33.8, 906.04 43.61, 908.54 66 M908.54 22 C910.47 35.93, 909.69 47.8, 908.54 66 M908.54 66 C904.74 79.58, 902.61 85.81, 886.54 88 M908.54 66 C910.66 83.06, 897.8 84.56, 886.54 88 M886.54 88 C696.36 88.91, 504.31 89.37, 22 88 M886.54 88 C629.64 84.12, 370.8 84.72, 22 88 M22 88 C4.23 85.09, 1.18 78.81, 0 66 M22 88 C8.54 88.75, -4.04 80.45, 0 66 M0 66 C-1.1 54.58, 3.29 44.62, 0 22 M0 66 C-2.44 54.03, 0.06 41.77, 0 22 M0 22 C-0.93 10.09, 5.17 1.88, 22 0 M0 22 C2.71 10.61, 10.57 1.16, 22 0" stroke="#000000" stroke-width="1" fill="none"></path></g><g stroke-linecap="round" transform="translate(184.5239834610661 1112.841715091274) rotate(0 125 28.5)"><path d="M14.25 0 C87.56 3.81, 164.58 3.47, 235.75 0 M14.25 0 C92.14 -0.13, 171.12 0.23, 235.75 0 M235.75 0 C241.52 3.6, 252.73 7, 250 14.25 M235.75 0 C249.21 -0.73, 245.81 7.67, 250 14.25 M250 14.25 C246.61 26.22, 249.25 33.79, 250 42.75 M250 14.25 C251.12 22.83, 248.53 30.27, 250 42.75 M250 42.75 C251.4 50.06, 247.1 59.08, 235.75 57 M250 42.75 C246.6 48.81, 241.65 53.09, 235.75 57 M235.75 57 C164.42 51.44, 87.73 51.57, 14.25 57 M235.75 57 C179.13 56.29, 124.52 54.36, 14.25 57 M14.25 57 C5.93 55.14, 1.05 52.91, 0 42.75 M14.25 57 C0.71 56.78, -1.07 50.29, 0 42.75 M0 42.75 C3.13 34.47, -1.66 22.3, 0 14.25 M0 42.75 C1.08 29.9, 0.1 22.32, 0 14.25 M0 14.25 C-2.16 6.63, 7.11 2.85, 14.25 0 M0 14.25 C3.24 5.91, 7.36 2.26, 14.25 0" stroke="#000000" stroke-width="1" fill="none"></path></g><g transform="translate(202.5239834610661 1130.841715091274) rotate(0 99.68991088867188 12.5)"><text x="0" y="17.52" font-family="Virgil, Segoe UI Emoji" font-size="20px" fill="#000000" text-anchor="start" style="white-space: pre;" direction="ltr" dominant-baseline="alphabetic">Instance Attributes</text></g><g stroke-linecap="round" transform="translate(454.5239834610661 1112.341715091274) rotate(0 125 28.5)"><path d="M14.25 0 C104.02 -5.3, 189.21 -3.03, 235.75 0 M14.25 0 C62.38 3.66, 114.91 3.08, 235.75 0 M235.75 0 C248.7 -0.63, 246.36 7.29, 250 14.25 M235.75 0 C245.55 -2.73, 253.01 1.24, 250 14.25 M250 14.25 C249.56 28.06, 252.3 37.34, 250 42.75 M250 14.25 C250.16 22.14, 250.38 33.26, 250 42.75 M250 42.75 C247.04 49.26, 242.12 53.6, 235.75 57 M250 42.75 C251.56 56.7, 241.12 60.51, 235.75 57 M235.75 57 C181.09 57.32, 128.78 51.45, 14.25 57 M235.75 57 C161.26 53.41, 86.21 54.5, 14.25 57 M14.25 57 C1.23 56.81, -0.93 50.55, 0 42.75 M14.25 57 C9.11 55.31, 0.87 55.61, 0 42.75 M0 42.75 C3.57 28.11, -1.39 22.44, 0 14.25 M0 42.75 C-0.95 37.91, 1.31 32.61, 0 14.25 M0 14.25 C2.82 5.76, 7.02 1.96, 14.25 0 M0 14.25 C-4.14 2.21, 6.23 -0.78, 14.25 0" stroke="#000000" stroke-width="1" fill="none"></path></g><g transform="translate(472.5239834610661 1131.341715091274) rotate(0 99.68991088867188 12.5)"><text x="0" y="17.52" font-family="Virgil, Segoe UI Emoji" font-size="20px" fill="#000000" text-anchor="start" style="white-space: pre;" direction="ltr" dominant-baseline="alphabetic">Instance Attributes</text></g><g stroke-linecap="round" transform="translate(719.612908438927 1110.113946335739) rotate(0 125 28.5)"><path d="M14.25 0 C65.6 2.49, 120.26 -3.58, 235.75 0 M14.25 0 C102.14 -2.43, 185.47 -1.06, 235.75 0 M235.75 0 C245.51 -2.38, 252.61 1.69, 250 14.25 M235.75 0 C248.96 -0.47, 252.37 4.32, 250 14.25 M250 14.25 C250.94 21.12, 249.25 36.97, 250 42.75 M250 14.25 C248.78 19.74, 248.7 26.53, 250 42.75 M250 42.75 C251.36 56.12, 241.66 60.06, 235.75 57 M250 42.75 C247.18 52.15, 242.6 54.61, 235.75 57 M235.75 57 C154.5 50.61, 68.07 54.31, 14.25 57 M235.75 57 C178.07 57.55, 123.02 56.89, 14.25 57 M14.25 57 C8.54 55.53, 0.76 55.17, 0 42.75 M14.25 57 C8.17 54.85, 2.36 56.05, 0 42.75 M0 42.75 C-3.65 36.1, 2.99 29.15, 0 14.25 M0 42.75 C1.07 33.37, 0.8 23.95, 0 14.25 M0 14.25 C-3.6 2.54, 6.03 -0.68, 14.25 0 M0 14.25 C1.31 0.58, 4.8 -2.28, 14.25 0" stroke="#000000" stroke-width="1" fill="none"></path></g><g transform="translate(738.8406771944619 1129.113946335739) rotate(0 99.68991088867188 12.5)"><text x="0" y="17.52" font-family="Virgil, Segoe UI Emoji" font-size="20px" fill="#000000" text-anchor="start" style="white-space: pre;" direction="ltr" dominant-baseline="alphabetic">Instance Attributes</text></g><g transform="translate(996.248214856174 1135.920506121243) rotate(0 8.219993591308594 12.5)"><text x="0" y="17.52" font-family="Virgil, Segoe UI Emoji" font-size="20px" fill="#000000" text-anchor="start" style="white-space: pre;" direction="ltr" dominant-baseline="alphabetic">...</text></g><g transform="translate(151.9024422612431 1134.5364155564719) rotate(0 8.219993591308594 12.5)"><text x="0" y="17.52" font-family="Virgil, Segoe UI Emoji" font-size="20px" fill="#000000" text-anchor="start" style="white-space: pre;" direction="ltr" dominant-baseline="alphabetic">...</text></g><g stroke-linecap="round"><g transform="translate(190.2593546529995 776.7583480362287) rotate(0 0.14116828821164518 161.44044825207033)"><path d="M-1.25 2.46 C-1.8 56.45, -0.59 268.85, -1.1 321.56 M3.27 1.32 C2.21 54.62, -2.64 263.61, -2.99 316.81" stroke="#1e1e1e" stroke-width="1" fill="none"></path></g><g transform="translate(190.2593546529995 776.7583480362287) rotate(0 0.14116828821164518 161.44044825207033)"><path d="M-9.41 293.64 C-7.93 300.34, -6.86 311.25, -4.81 316.23 M-11.46 292.46 C-7.82 301.37, -4.7 308.61, -2.7 316.94" stroke="#1e1e1e" stroke-width="1" fill="none"></path></g><g transform="translate(190.2593546529995 776.7583480362287) rotate(0 0.14116828821164518 161.44044825207033)"><path d="M7.69 293.92 C2.7 300.43, -2.71 311.24, -4.81 316.23 M5.64 292.74 C3.45 301.69, 0.74 308.83, -2.7 316.94" stroke="#1e1e1e" stroke-width="1" fill="none"></path></g></g><mask></mask><g transform="translate(122.07329883444095 901.8072527735362) rotate(0 27.699974060058594 12.5)"><text x="0" y="17.52" font-family="Virgil, Segoe UI Emoji" font-size="20px" fill="#1e1e1e" text-anchor="start" style="white-space: pre;" direction="ltr" dominant-baseline="alphabetic">start</text></g><g stroke-linecap="round"><g transform="translate(278.91591194639943 738.5883065544313) rotate(0 214.381375565672 179.6013558685271)"><path d="M-1.96 2.07 C10.25 7.1, 55.58 -13.37, 76.05 32.62 C96.51 78.61, 69.15 229.52, 120.83 278.04 C172.5 326.56, 334.45 310.68, 386.1 323.75 C437.75 336.83, 423.75 351.06, 430.72 356.49 M2.18 0.73 C14.98 7.25, 61.61 -11.62, 81.13 35.03 C100.66 81.69, 68.43 232.19, 119.34 280.66 C170.26 329.12, 335.2 312.85, 386.64 325.82 C438.09 338.79, 420.71 353.64, 428.01 358.48" stroke="#1e1e1e" stroke-width="1" fill="none"></path></g><g transform="translate(278.91591194639943 738.5883065544313) rotate(0 214.381375565672 179.6013558685271)"><path d="M413.46 337.57 C416.96 347.5, 424.31 354.68, 427.3 359.49 M411.17 338.78 C417.08 345.87, 423.57 353.04, 428.32 359.32" stroke="#1e1e1e" stroke-width="1" fill="none"></path></g><g transform="translate(278.91591194639943 738.5883065544313) rotate(0 214.381375565672 179.6013558685271)"><path d="M429.54 331.75 C426.66 343.89, 427.6 353.4, 427.3 359.49 M427.25 332.96 C427.18 342.31, 427.72 351.64, 428.32 359.32" stroke="#1e1e1e" stroke-width="1" fill="none"></path></g></g><mask></mask><g transform="translate(241.25023180976393 896.5355817669292) rotate(0 64.69995880126953 25)"><text x="0" y="17.52" font-family="Virgil, Segoe UI Emoji" font-size="20px" fill="#1e1e1e" text-anchor="start" style="white-space: pre;" direction="ltr" dominant-baseline="alphabetic">end = start </text><text x="0" y="42.519999999999996" font-family="Virgil, Segoe UI Emoji" font-size="20px" fill="#1e1e1e" text-anchor="start" style="white-space: pre;" direction="ltr" dominant-baseline="alphabetic">    + count</text></g><g stroke-linecap="round"><g transform="translate(1276.0166743169236 768.8126559098723) rotate(0 29.42200099988088 145.41053584376317)"><path d="M2.2 -0.77 C8.9 3.34, 36.39 5.45, 42.13 25.56 C47.87 45.66, 33.58 101.81, 36.62 119.87 C39.66 137.94, 61.37 129.66, 60.37 133.95 C59.38 138.23, 34.23 123.32, 30.66 145.59 C27.08 167.86, 44.3 242.77, 38.93 267.59 C33.56 292.4, 4.88 290.12, -1.56 294.47 M-0.04 -3.65 C7.38 0.8, 41.78 7.81, 47.5 28.85 C53.22 49.88, 33.23 105.85, 34.26 122.53 C35.28 139.21, 53.65 124.98, 53.68 128.93 C53.71 132.89, 36.37 123.47, 34.44 146.29 C32.5 169.11, 47.93 241.71, 42.09 265.85 C36.25 289.98, 6.71 286.7, -0.59 291.11" stroke="#1e1e1e" stroke-width="1" fill="none"></path></g></g><mask></mask><g stroke-linecap="round" transform="translate(172.96642255877373 1241.789665392435) rotate(0 134.76570533256984 78.41360503313501)"><path d="M32 0 C74.83 -0.07, 117.9 1.09, 237.53 0 M32 0 C111.38 -0.94, 190.1 2.03, 237.53 0 M237.53 0 C255.43 2.27, 273.02 9.21, 269.53 32 M237.53 0 C256.45 -2.97, 271.42 14.47, 269.53 32 M269.53 32 C264.69 65.62, 268.9 102.1, 269.53 124.83 M269.53 32 C270.47 55.58, 273.2 77.02, 269.53 124.83 M269.53 124.83 C267.68 147.35, 255.56 154.4, 237.53 156.83 M269.53 124.83 C269.37 146.56, 255.35 157.81, 237.53 156.83 M237.53 156.83 C163.64 154.91, 92.23 160.93, 32 156.83 M237.53 156.83 C156.25 156.31, 78.32 155.92, 32 156.83 M32 156.83 C7.77 155.37, 0.27 149.01, 0 124.83 M32 156.83 C10.66 157.58, -1.38 146.68, 0 124.83 M0 124.83 C2.56 96.08, 1.09 67.94, 0 32 M0 124.83 C-0.91 91.89, -2.13 56.01, 0 32 M0 32 C-3.8 12.02, 10.91 -2.5, 32 0 M0 32 C-1.31 13.31, 7.84 -0.37, 32 0" stroke="#000000" stroke-width="1" fill="none"></path></g><g transform="translate(190.96642255877373 1259.789665392435) rotate(0 117.96992492675781 62.5)"><text x="0" y="17.52" font-family="Virgil, Segoe UI Emoji" font-size="20px" fill="#000000" text-anchor="start" style="white-space: pre;" direction="ltr" dominant-baseline="alphabetic">Instance Attributes</text><text x="0" y="42.519999999999996" font-family="Virgil, Segoe UI Emoji" font-size="20px" fill="#000000" text-anchor="start" style="white-space: pre;" direction="ltr" dominant-baseline="alphabetic"></text><text x="0" y="67.52" font-family="Virgil, Segoe UI Emoji" font-size="20px" fill="#000000" text-anchor="start" style="white-space: pre;" direction="ltr" dominant-baseline="alphabetic">Translation: (14, 2, -3)</text><text x="0" y="92.52" font-family="Virgil, Segoe UI Emoji" font-size="20px" fill="#000000" text-anchor="start" style="white-space: pre;" direction="ltr" dominant-baseline="alphabetic">Rotation: (30°, 70°, 0°)</text><text x="0" y="117.52" font-family="Virgil, Segoe UI Emoji" font-size="20px" fill="#000000" text-anchor="start" style="white-space: pre;" direction="ltr" dominant-baseline="alphabetic">Scale: (0.3, 0.3, 0.3)</text></g><g stroke-linecap="round"><g transform="translate(310.9990549156404 1163.9519851044515) rotate(0 1.5646610391537479 39.89475926368232)"><path d="M-0.9 2.29 C-0.01 15.39, 3.15 66.62, 3.78 78.73 M3.81 1.06 C4.62 13.45, 2.89 62.48, 2.51 75.22" stroke="#1e1e1e" stroke-width="1" fill="none"></path></g><g transform="translate(310.9990549156404 1163.9519851044515) rotate(0 1.5646610391537479 39.89475926368232)"><path d="M-3.67 52.75 C-1.4 57.96, -2.18 62.27, 4.06 77.18 M-5.9 52.04 C-4.43 57.88, -1.69 62.46, 2.09 75.32" stroke="#1e1e1e" stroke-width="1" fill="none"></path></g><g transform="translate(310.9990549156404 1163.9519851044515) rotate(0 1.5646610391537479 39.89475926368232)"><path d="M13.42 53.28 C11.5 58.31, 6.52 62.48, 4.06 77.18 M11.2 52.57 C8.55 58.22, 7.18 62.67, 2.09 75.32" stroke="#1e1e1e" stroke-width="1" fill="none"></path></g></g><mask></mask><g stroke-linecap="round"><g transform="translate(860.013476918019 1531.245661963021) rotate(0 68.92668362343693 -74.26235337910384)" fill-rule="evenodd"><path d="M3.29 -2.08 L82.22 -153.82 L135.01 -8.41 L-0.62 2.65" stroke="none" stroke-width="0" fill="#a5d8ff" fill-rule="evenodd"></path><path d="M2.05 2.48 C30.22 -52.03, 61.89 -103.7, 87.61 -148.18 M-0.42 1.71 C19.86 -38.8, 46.35 -81.59, 84.77 -149.56 M86.53 -151.73 C98.68 -113.63, 112.79 -80.98, 138.64 -6.98 M84.3 -150.25 C98.13 -114.45, 109.72 -76.69, 135.72 -7.16 M134.56 -5.36 C110.04 -9.2, 78.76 -2.85, 3.39 3.21 M139.28 -8.03 C84.79 -8.24, 28.74 -5.57, -1.43 1.66 M0 0 C0 0, 0 0, 0 0 M0 0 C0 0, 0 0, 0 0" stroke="#1e1e1e" stroke-width="1" fill="none"></path></g></g><mask></mask><g stroke-linecap="round"><g transform="translate(448.4454510952146 1281.0363591970643) rotate(0 131.97652187572072 3.0620002285221517)"><path d="M-0.76 0.46 C97.38 0.69, 193.77 4.21, 264.72 5.72 M-0.6 0.4 C102.49 2.55, 203.04 6.59, 263 4.37" stroke="#1e1e1e" stroke-width="1" fill="none"></path></g><g transform="translate(448.4454510952146 1281.0363591970643) rotate(0 131.97652187572072 3.0620002285221517)"><path d="M239.1 13.41 C248.41 9.34, 256.64 7.03, 263.57 4.42 M239.2 13.37 C249.51 9.61, 258.2 7.44, 262.49 3.57" stroke="#1e1e1e" stroke-width="1" fill="none"></path></g><g transform="translate(448.4454510952146 1281.0363591970643) rotate(0 131.97652187572072 3.0620002285221517)"><path d="M238.96 -3.69 C248.36 -1.48, 256.65 2.5, 263.57 4.42 M239.06 -3.73 C249.4 -0.95, 258.15 3.44, 262.49 3.57" stroke="#1e1e1e" stroke-width="1" fill="none"></path></g></g><mask></mask><g stroke-linecap="round"><g transform="translate(1330.6621895853568 899.0847594916127) rotate(0 -199.81142743608075 192.86787069136267)"><path d="M1.29 -0.36 C6 10.06, 32.45 3.71, 29.04 60.85 C25.64 117.99, 57.33 287.83, -19.13 342.48 C-95.59 397.13, -360.5 381.08, -429.71 388.77 M-1.45 -3.03 C4.1 6.78, 37.56 -0.91, 34.55 56.95 C31.54 114.81, 58.98 289.69, -19.52 344.12 C-98.02 398.54, -367.97 375.8, -436.45 383.48" stroke="#1e1e1e" stroke-width="1" fill="none"></path></g><g transform="translate(1330.6621895853568 899.0847594916127) rotate(0 -199.81142743608075 192.86787069136267)"><path d="M-413.36 373.4 C-419.37 379.47, -430.44 382.26, -435.47 381.86 M-413.18 375.18 C-421.68 377.68, -429.4 380.46, -436.15 382.62" stroke="#1e1e1e" stroke-width="1" fill="none"></path></g><g transform="translate(1330.6621895853568 899.0847594916127) rotate(0 -199.81142743608075 192.86787069136267)"><path d="M-413.1 390.5 C-419.09 390.95, -430.25 388.13, -435.47 381.86 M-412.92 392.28 C-421.52 388.91, -429.33 385.83, -436.15 382.62" stroke="#1e1e1e" stroke-width="1" fill="none"></path></g></g><mask></mask><g stroke-linecap="round" transform="translate(715.701189655289 1254.509204357639) rotate(0 86.93835342046691 43.46917671023357)"><path d="M21.73 0 C57.99 4.57, 85.19 3.69, 152.14 0 M21.73 0 C50.85 1.29, 80.34 2.96, 152.14 0 M152.14 0 C170.45 -2.04, 171.14 8.38, 173.88 21.73 M152.14 0 C170.98 -2.02, 172.24 3.65, 173.88 21.73 M173.88 21.73 C170.81 33.12, 176.19 39.52, 173.88 65.2 M173.88 21.73 C175.97 35.08, 175.37 49.28, 173.88 65.2 M173.88 65.2 C174.99 81.24, 163.13 90.44, 152.14 86.94 M173.88 65.2 C175.44 84.01, 165.52 88.53, 152.14 86.94 M152.14 86.94 C115.77 87.07, 80.67 82.13, 21.73 86.94 M152.14 86.94 C114.3 88.78, 75 88.02, 21.73 86.94 M21.73 86.94 C10.82 90.84, -0.08 77.06, 0 65.2 M21.73 86.94 C10.9 87.32, 3.57 80.93, 0 65.2 M0 65.2 C2.61 46.46, 3.87 34.62, 0 21.73 M0 65.2 C-1.48 49.81, 0.99 32.3, 0 21.73 M0 21.73 C1.61 8.27, 8.53 2.01, 21.73 0 M0 21.73 C3.57 4.69, 8.98 4.07, 21.73 0" stroke="#1e1e1e" stroke-width="1" fill="none"></path></g><g transform="translate(742.9695601655997 1275.4783810678725) rotate(0 59.66998291015625 22.5)"><text x="59.66998291015625" y="31.536" font-family="Virgil, Segoe UI Emoji" font-size="36px" fill="#1e1e1e" text-anchor="middle" style="white-space: pre;" direction="ltr" dominant-baseline="alphabetic">Shader</text></g><g stroke-linecap="round"><g transform="translate(811.5890794572747 1344.0045681728257) rotate(0 44.29244949647011 47.649991916629915)"><path d="M2.09 -2.48 C17.17 14.14, 74.22 81.77, 88.81 97.78 M-0.22 2.34 C14.7 18.35, 72.09 78.29, 86.89 93.8" stroke="#1e1e1e" stroke-width="1" fill="none"></path></g><g transform="translate(811.5890794572747 1344.0045681728257) rotate(0 44.29244949647011 47.649991916629915)"><path d="M62.71 83.14 C71.11 86.2, 73.46 89.5, 88.87 95.72 M65.42 82.99 C72.33 87.31, 81.07 90, 86.88 93.33" stroke="#1e1e1e" stroke-width="1" fill="none"></path></g><g transform="translate(811.5890794572747 1344.0045681728257) rotate(0 44.29244949647011 47.649991916629915)"><path d="M75.07 71.33 C80.44 77.3, 79.83 83.43, 88.87 95.72 M77.78 71.17 C80.07 79.82, 84.27 86.85, 86.88 93.33" stroke="#1e1e1e" stroke-width="1" fill="none"></path></g></g><mask></mask></svg>